<?xml version="1.0" standalone="no"?><!DOCTYPE svg PUBLIC "-//W3C//DTD SVG 1.1//EN" "http://www.w3.org/Graphics/SVG/1.1/DTD/svg11.dtd"><svg t="1508765470860" class="icon" style="" viewBox="0 0 1024 1024" version="1.1" xmlns="http://www.w3.org/2000/svg" p-id="1163" xmlns:xlink="http://www.w3.org/1999/xlink" width="200" height="200"><defs><style type="text/css"></style></defs><path d="M919.77955555 82.57592888h-220.20095999c-8.15559111-48.93354667-48.93354667-81.55591112-97.86709335-81.5559111h-489.33546665c-57.08913778 0-106.02268444 40.77795555-106.02268445 97.86709334v734.00319999c0 57.08913778 48.93354667 97.86709332 97.86709334 97.86709335h220.20095999c8.15559111 48.93354667 48.93354667 81.55591112 97.86709335 81.5559111h489.33546665c57.08913778 0 97.86709332-48.93354667 97.86709334-97.86709334V180.44302223c8.15559111-57.08913778-32.62236444-97.86709332-89.71150223-97.86709335zM47.13130667 832.89031111V98.88711112c0-32.62236444 24.46677334-65.24472888 65.24472889-65.24472889h489.33546665c24.46677334 0 48.93354667 16.31118222 57.08913779 40.77795555H430.44408888c-57.08913778 8.15559111-97.86709332 48.93354667-97.86709332 106.02268445v717.69201777H112.37603556c-32.62236444 0-65.24472888-32.62236444-65.24472889-65.24472889z m937.89297777 81.55591111c0 32.62236444-24.46677334 65.24472888-65.24472889 65.24472889H430.44408888c-32.62236444 0-65.24472888-24.46677334-65.24472888-65.24472889V180.44302223c0-32.62236444 24.46677334-65.24472888 65.24472888-65.24472889h489.33546667c32.62236444 0 65.24472888 24.46677334 65.24472889 65.24472889v734.00319999z" p-id="1164"></path><path d="M781.13450667 310.93248L675.11182222 506.66666667 569.08913778 310.93248H512l130.48945779 236.51214222H536.46677334V588.22257779h114.17827555v48.93354667H536.46677334v32.62236443h114.17827555v114.17827556h48.93354667V669.77848889h114.17827555v-32.62236443h-114.17827555V588.22257779h114.17827555v-40.77795557h-114.17827555L838.22364444 310.93248z" p-id="1165"></path></svg>