<?xml version="1.0" standalone="no"?><!DOCTYPE svg PUBLIC "-//W3C//DTD SVG 1.1//EN" "http://www.w3.org/Graphics/SVG/1.1/DTD/svg11.dtd"><svg t="1508765476180" class="icon" style="" viewBox="0 0 1024 1024" version="1.1" xmlns="http://www.w3.org/2000/svg" p-id="1287" xmlns:xlink="http://www.w3.org/1999/xlink" width="200" height="200"><defs><style type="text/css"></style></defs><path d="M368.75719111 63.08977778h287.01127111v34.44053333H368.75719111v-34.44053333z" fill="" p-id="1288"></path><path d="M1013.95797333 97.53031111v-34.44053333H798.12494222v34.44053333h181.38225778v166.46826667H43.86929778V97.53031111h181.38112v-34.44053333H9.41852445v34.44053333h0.01024v886.29134222h-0.00910223v34.44053334h1004.53717333v-34.44053334h-0.00910222V97.53031111h0.01024zM43.86929778 983.82165333V298.43911111h935.63676444v685.38254222H43.86929778z" fill="" p-id="1289"></path><path d="M279.20839111 3.39171555h34.44053334V180.18986667h-34.44053334V3.39171555zM710.87217778 3.39171555h34.44167111V180.18986667h-34.44053334V3.39171555zM278.96263111 542.12152889v38.67534222c27.13031111-16.28387555 49.52177778-33.23676445 67.1744-50.88938666v280.90936888h40.70968889v-350.11697778h-24.42581333c-21.72245333 31.232-49.55249778 58.36231111-83.45827556 81.42165334zM719.66378667 659.16700445c-3.40309333-12.88192-8.84167111-25.76384-16.28387556-38.67648-7.4752-12.88078222-19.33767111-23.06048-35.62382222-30.53454223-16.28273778-7.44334222-33.26862222-11.51431111-50.88824889-12.21290667-17.65148445-0.66787555-36.63985778 3.75466667-56.99584 13.23121778 6.77432889-21.69173333 13.54865778-50.88938667 20.35484445-87.52924444h130.2778311v-36.64099556H549.69457778c-23.0912 108.58496-35.97312 166.91768889-38.67648 175.05848889l34.60551111 4.07210667c10.84416-14.91854222 24.74439111-24.42695111 41.72913778-28.49792 16.95288889-4.07210667 32.21959111-4.07210667 45.80010666 0 13.55093333 4.06983111 24.74552889 12.21176889 33.5872 24.42581333 8.81095111 12.21290667 13.55093333 27.16103111 14.24952889 44.78179556 0.66673778 17.65262222-2.03548445 33.5872-8.14193777 47.83559111s-16.28501333 25.79569778-30.53454223 34.60551111c-14.24952889 8.84280889-32.91818667 11.19573333-55.97866667 7.12476445-23.09006222-4.07096889-39.37507555-24.42581333-48.85390222-61.0668089l-36.63985778 10.17742223c6.77319111 32.57002667 19.33767111 55.66008889 37.6581689 69.20988444 18.31936 13.58051555 37.65816889 21.05457778 58.0141511 22.39032889 20.35484445 1.36760889 38.32604445-1.01831111 53.94204445-7.12476444 15.58414222-6.10645333 28.81536-14.24839111 39.69365333-24.42581334 10.84529778-10.17856 18.98951111-23.05934222 24.42695112-38.67648 5.40672-15.58528 8.46051555-30.85198222 9.1591111-45.80010666 0.66901333-14.91399111-0.69859555-28.81422222-4.07096888-41.72686222z" fill="" p-id="1290"></path></svg>