<?xml version="1.0" standalone="no"?><!DOCTYPE svg PUBLIC "-//W3C//DTD SVG 1.1//EN" "http://www.w3.org/Graphics/SVG/1.1/DTD/svg11.dtd"><svg t="1508765463432" class="icon" style="" viewBox="0 0 1025 1024" version="1.1" xmlns="http://www.w3.org/2000/svg" p-id="1040" xmlns:xlink="http://www.w3.org/1999/xlink" width="200.1953125" height="200"><defs><style type="text/css"></style></defs><path d="M994.489914 339.787567l-7.166736-18.408673a51.291341 51.291341 0 0 0-48.761904-17.425004 32.039522 32.039522 0 0 0-28.104845 35.833677l1.264718 4.637299a427.615205 427.615205 0 0 1 33.866338 167.504872A432.955126 432.955126 0 1 1 512.632359 79.536709a427.615205 427.615205 0 0 1 185.491972 42.157267 32.742144 32.742144 0 0 0 10.258268 4.918347 38.784685 38.784685 0 0 0 32.882668-16.160285 50.58872 50.58872 0 0 0-1.124194-48.902429A57.474406 57.474406 0 0 0 730.72595 49.183477l-18.830245-8.290929A507.714011 507.714011 0 0 0 512.632359 0 511.929738 511.929738 0 1 0 1025.826815 511.929738a502.093042 502.093042 0 0 0-30.774805-172.142171z m-258.002471-7.30726a55.366543 55.366543 0 0 0 4.356251-22.343351 34.709483 34.709483 0 0 0-10.960889-25.996981 39.206258 39.206258 0 0 0-28.104844-10.679841 43.28146 43.28146 0 0 0-21.078633 4.918348 48.059284 48.059284 0 0 0-14.755044 12.366132 160.478661 160.478661 0 0 0-12.64718 18.408673l-11.804034 20.376012-100.896391 166.099629-112.419377-176.217373a188.583505 188.583505 0 0 0-25.715932-34.850007 39.206258 39.206258 0 0 0-28.104845-10.820365 38.503637 38.503637 0 0 0-28.104844 10.960889 39.346782 39.346782 0 0 0-10.960889 29.088514 43.843557 43.843557 0 0 0 3.794154 18.408673 269.103884 269.103884 0 0 0 16.441334 28.104844l104.268972 163.429669h-45.389324Q365.362975 523.452724 365.362975 555.492246t49.464526 32.742144h78.412515v50.167147h-78.834088q-49.042953 0-49.042953 32.742144T414.405928 702.621106h78.412516v28.104844q0 70.262111 47.778235 70.262111t47.075614-70.262111v-28.104844h78.834088q49.183477 0 49.183478-32.039522t-49.183478-32.742144h-78.834088v-49.60505h78.834088q49.183477 0 49.183478-32.742144t-49.183478-32.039522h-44.265129l100.474818-165.537533a204.041169 204.041169 0 0 0 14.052422-25.434884z" fill="" p-id="1041"></path></svg>