<?xml version="1.0" standalone="no"?><!DOCTYPE svg PUBLIC "-//W3C//DTD SVG 1.1//EN" "http://www.w3.org/Graphics/SVG/1.1/DTD/svg11.dtd"><svg t="1508765483211" class="icon" style="" viewBox="0 0 1024 1024" version="1.1" xmlns="http://www.w3.org/2000/svg" p-id="1412" xmlns:xlink="http://www.w3.org/1999/xlink" width="200" height="200"><defs><style type="text/css"></style></defs><path d="M69.6867832 554.36174011c-18.388076 0-35.85583008-7.95166176-47.92200224-21.8183616-10.92236096-12.55097311-16.42709376-28.61131392-15.5021888-45.22407568 0.913444-16.39958656 8.01699024-31.6095192 20.00293455-42.82757472l296.03266001-292.93703488C337.35798001 136.65191611 357.32423904 128.44581947 378.51912128 128.44581947c17.90556656 0 35.50512336 6.1201896 49.55634544 17.23280384l215.60030127 170.5114656 178.08262081-203.99371665-100.90519488-106.76063551 290.0981384-0.03667552-0.09741872 292.5542368-97.04168208-97.1253472L699.08640608 438.81049563c-14.61739664 16.20016495-35.52116848 25.49162112-57.35328368 25.49162112-17.79095585 0-35.17160753-6.21646256-48.93974176-17.50557648L376.2074312 269.22049771 113.41290368 536.90544699l-0.38050656 0.3518536C101.22753664 548.28739547 85.83422752 554.36174011 69.6867832 554.36174011z" p-id="1413"></path><path d="M29.027636 619.33546235l120.34195488 0 0 393.94537953-120.34195488 0 0-393.94537953Z" p-id="1414"></path><path d="M300.89242192 424.96786459l120.34195488 0 0 588.31183152-120.34195488 0 0-588.31183152Z" p-id="1415"></path><path d="M595.67697632 556.70666732l120.34768592 0 0 456.57302879-120.34768592 0 0-456.57302879Z" p-id="1416"></path><path d="M890.46382112 353.6997457l120.34768592 0 0 659.58109729-120.34768592 0 0-659.58109729Z" p-id="1417"></path></svg>